<?xml version="1.0" encoding="UTF-8"?>
<svg width="150px" height="38px" viewBox="0 0 150 38" version="1.1" xmlns="http://www.w3.org/2000/svg" xmlns:xlink="http://www.w3.org/1999/xlink">
    <!-- Generator: Sketch 64 (93537) - https://sketch.com -->
    <title>EL_Google_Podcasts_Badge</title>
    <desc>Created with Sketch.</desc>
    <g id="EL_Google_Podcasts_Badge" stroke="none" stroke-width="1" fill="none" fill-rule="evenodd">
        <g id="Rectangle-Solid" fill="#FFFFFF" stroke="#9AA0A6" stroke-width="0.56">
            <rect id="Rectangle" x="0.28" y="0.28" width="149.44" height="37.44" rx="8.96"></rect>
        </g>
        <g id="Podcast_icon_final" transform="translate(6.000000, 6.000000)">
            <g id="logo_podcasts_192px">
                <rect id="Rectangle-path" x="0" y="0" width="27" height="27"></rect>
                <path d="M2.671875,11.109375 C1.816875,11.109375 1.125,11.80125 1.125,12.65625 L1.125,14.34375 C1.125,15.19875 1.816875,15.890625 2.671875,15.890625 C3.526875,15.890625 4.21875,15.19875 4.21875,14.34375 L4.21875,12.65625 C4.21875,11.80125 3.526875,11.109375 2.671875,11.109375 Z" id="Shape" fill="#0066D9" fill-rule="nonzero"></path>
                <path d="M24.328125,11.109375 C23.473125,11.109375 22.78125,11.80125 22.78125,12.65625 L22.78125,14.34375 C22.78125,15.19875 23.473125,15.890625 24.328125,15.890625 C25.183125,15.890625 25.875,15.19875 25.875,14.34375 L25.875,12.65625 C25.875,11.80125 25.183125,11.109375 24.328125,11.109375 Z" id="Shape" fill="#4285F4" fill-rule="nonzero"></path>
                <path d="M8.015625,16.171875 C7.160625,16.171875 6.46875,16.86375 6.46875,17.71875 L6.46875,19.40625 C6.46875,20.26125 7.160625,20.953125 8.015625,20.953125 C8.870625,20.953125 9.5625,20.26125 9.5625,19.40625 L9.5625,17.71875 C9.5625,16.86375 8.870625,16.171875 8.015625,16.171875 Z" id="Shape" fill="#EA4335" fill-rule="nonzero"></path>
                <path d="M8.015625,6.046875 C7.160625,6.046875 6.46875,6.73875 6.46875,7.59375 L6.46875,13.1132812 L6.47015625,13.1132812 C6.48984375,13.9514062 7.17328125,14.625 8.015625,14.625 C8.85796875,14.625 9.54140625,13.9514062 9.56109375,13.1132812 L9.5625,13.1132812 L9.5625,7.59375 C9.5625,6.73875 8.870625,6.046875 8.015625,6.046875 Z" id="Shape" fill="#EA4335" fill-rule="nonzero"></path>
                <path d="M18.984375,6.046875 C18.129375,6.046875 17.4375,6.73875 17.4375,7.59375 L17.4375,9.28125 C17.4375,10.13625 18.129375,10.828125 18.984375,10.828125 C19.839375,10.828125 20.53125,10.13625 20.53125,9.28125 L20.53125,7.59375 C20.53125,6.73875 19.839375,6.046875 18.984375,6.046875 Z" id="Shape" fill="#34A853" fill-rule="nonzero"></path>
                <path d="M13.5,1.125 C12.645,1.125 11.953125,1.816875 11.953125,2.671875 L11.953125,4.359375 C11.953125,5.214375 12.645,5.90625 13.5,5.90625 C14.355,5.90625 15.046875,5.214375 15.046875,4.359375 L15.046875,2.671875 C15.046875,1.816875 14.355,1.125 13.5,1.125 Z" id="Shape" fill="#FAB908" fill-rule="nonzero"></path>
                <path d="M13.5,21.09375 C12.645,21.09375 11.953125,21.785625 11.953125,22.640625 L11.953125,24.328125 C11.953125,25.183125 12.645,25.875 13.5,25.875 C14.355,25.875 15.046875,25.183125 15.046875,24.328125 L15.046875,22.640625 C15.046875,21.785625 14.355,21.09375 13.5,21.09375 Z" id="Shape" fill="#FAB908" fill-rule="nonzero"></path>
                <path d="M18.984375,12.375 C18.129375,12.375 17.4375,13.066875 17.4375,13.921875 L17.4375,19.40625 C17.4375,20.26125 18.129375,20.953125 18.984375,20.953125 C19.839375,20.953125 20.53125,20.26125 20.53125,19.40625 L20.53125,13.921875 C20.53125,13.066875 19.839375,12.375 18.984375,12.375 Z" id="Shape" fill="#34A853" fill-rule="nonzero"></path>
                <path d="M15.046875,9 C15.046875,8.145 14.355,7.453125 13.5,7.453125 C12.645,7.453125 11.953125,8.145 11.953125,9 L11.953125,9 L11.953125,12.7504687 L11.953125,14.2509375 L11.953125,18 L11.953125,18 C11.953125,18.855 12.645,19.546875 13.5,19.546875 C14.355,19.546875 15.046875,18.855 15.046875,18 L15.046875,18 L15.046875,14.2495313 L15.046875,12.7504687 L15.046875,9 L15.046875,9 Z" id="Shape" fill="#FAB908" fill-rule="nonzero"></path>
            </g>
        </g>
        <g id="Group" transform="translate(39.000000, 15.000000)">
            <polygon id="Rectangle-path" points="0 3.24 101.92 3.24 101.92 18.92 0 18.92"></polygon>
            <path d="M50.344,14.06 L50.344,9.972 L52.542,9.972 C53.102,9.972 53.62,9.846 54.096,9.594 C54.572,9.342 54.9523333,8.98966667 55.237,8.537 C55.5216667,8.08433333 55.664,7.57333333 55.664,7.004 C55.664,6.43466667 55.5216667,5.92366667 55.237,5.471 C54.9523333,5.01833333 54.572,4.666 54.096,4.414 C53.62,4.162 53.102,4.036 52.542,4.036 L52.542,4.036 L49.168,4.036 L49.168,14.06 L50.344,14.06 Z M52.57,8.838 L50.344,8.838 L50.344,5.17 L52.57,5.17 C52.9433333,5.17 53.2723333,5.25866667 53.557,5.436 C53.8416667,5.61333333 54.0633333,5.842 54.222,6.122 C54.3806667,6.402 54.46,6.696 54.46,7.004 C54.46,7.312 54.3806667,7.606 54.222,7.886 C54.0633333,8.166 53.8416667,8.39466667 53.557,8.572 C53.2723333,8.74933333 52.9433333,8.838 52.57,8.838 L52.57,8.838 Z M59.598,14.284 C60.298,14.284 60.928,14.116 61.488,13.78 C62.048,13.444 62.4843333,12.9866667 62.797,12.408 C63.1096667,11.8293333 63.266,11.19 63.266,10.49 C63.266,9.79 63.1096667,9.15066667 62.797,8.572 C62.4843333,7.99333333 62.048,7.536 61.488,7.2 C60.928,6.864 60.298,6.696 59.598,6.696 C58.898,6.696 58.268,6.864 57.708,7.2 C57.148,7.536 56.7116667,7.99333333 56.399,8.572 C56.0863333,9.15066667 55.93,9.79 55.93,10.49 C55.93,11.19 56.0863333,11.8293333 56.399,12.408 C56.7116667,12.9866667 57.148,13.444 57.708,13.78 C58.268,14.116 58.898,14.284 59.598,14.284 Z M59.598,13.206 C59.1593333,13.206 58.7486667,13.0963333 58.366,12.877 C57.9833333,12.6576667 57.6776667,12.3426667 57.449,11.932 C57.2203333,11.5213333 57.106,11.0406667 57.106,10.49 C57.106,9.93933333 57.2203333,9.45866667 57.449,9.048 C57.6776667,8.63733333 57.9833333,8.32233333 58.366,8.103 C58.7486667,7.88366667 59.1593333,7.774 59.598,7.774 C60.0366667,7.774 60.445,7.88366667 60.823,8.103 C61.201,8.32233333 61.5043333,8.63733333 61.733,9.048 C61.9616667,9.45866667 62.076,9.93933333 62.076,10.49 C62.076,11.0406667 61.9616667,11.5213333 61.733,11.932 C61.5043333,12.3426667 61.201,12.6576667 60.823,12.877 C60.445,13.0963333 60.0366667,13.206 59.598,13.206 Z M67.48,14.284 C68.0306667,14.284 68.5206667,14.1603333 68.95,13.913 C69.3793333,13.6656667 69.706,13.3646667 69.93,13.01 L69.93,13.01 L69.986,13.01 L69.986,14.06 L71.12,14.06 L71.12,4.036 L69.93,4.036 L69.93,6.99 L69.986,7.984 L69.93,7.984 C69.706,7.62 69.3793333,7.31433333 68.95,7.067 C68.5206667,6.81966667 68.0306667,6.696 67.48,6.696 C66.8453333,6.696 66.269,6.85933333 65.751,7.186 C65.233,7.51266667 64.8246667,7.96533333 64.526,8.544 C64.2273333,9.12266667 64.078,9.77133333 64.078,10.49 C64.078,11.218 64.2273333,11.869 64.526,12.443 C64.8246667,13.017 65.233,13.4673333 65.751,13.794 C66.269,14.1206667 66.8453333,14.284 67.48,14.284 Z M67.62,13.206 C67.2093333,13.206 66.822,13.094 66.458,12.87 C66.094,12.646 65.8023333,12.3263333 65.583,11.911 C65.3636667,11.4956667 65.254,11.022 65.254,10.49 C65.254,9.958 65.3636667,9.48433333 65.583,9.069 C65.8023333,8.65366667 66.094,8.334 66.458,8.11 C66.822,7.886 67.2093333,7.774 67.62,7.774 C68.04,7.774 68.4296667,7.886 68.789,8.11 C69.1483333,8.334 69.4376667,8.65133333 69.657,9.062 C69.8763333,9.47266667 69.986,9.94866667 69.986,10.49 C69.986,11.0313333 69.8763333,11.5073333 69.657,11.918 C69.4376667,12.3286667 69.1483333,12.646 68.789,12.87 C68.4296667,13.094 68.04,13.206 67.62,13.206 Z M75.852,14.284 C76.6173333,14.284 77.2683333,14.102 77.805,13.738 C78.3416667,13.374 78.7313333,12.898 78.974,12.31 L78.974,12.31 L77.91,11.862 C77.7326667,12.2913333 77.462,12.6226667 77.098,12.856 C76.734,13.0893333 76.3,13.206 75.796,13.206 C75.376,13.206 74.984,13.0916667 74.62,12.863 C74.256,12.6343333 73.9643333,12.3146667 73.745,11.904 C73.5256667,11.4933333 73.416,11.022 73.416,10.49 C73.416,9.958 73.5256667,9.48666667 73.745,9.076 C73.9643333,8.66533333 74.256,8.34566667 74.62,8.117 C74.984,7.88833333 75.376,7.774 75.796,7.774 C76.2906667,7.774 76.713,7.88833333 77.063,8.117 C77.413,8.34566667 77.6766667,8.67933333 77.854,9.118 L77.854,9.118 L78.932,8.67 C78.708,8.07266667 78.3323333,7.59433333 77.805,7.235 C77.2776667,6.87566667 76.6266667,6.696 75.852,6.696 C75.1613333,6.696 74.5406667,6.85933333 73.99,7.186 C73.4393333,7.51266667 73.01,7.96533333 72.702,8.544 C72.394,9.12266667 72.24,9.77133333 72.24,10.49 C72.24,11.2086667 72.394,11.855 72.702,12.429 C73.01,13.003 73.4393333,13.4556667 73.99,13.787 C74.5406667,14.1183333 75.1613333,14.284 75.852,14.284 Z M82.278,14.284 C82.7913333,14.284 83.2533333,14.1626667 83.664,13.92 C84.0746667,13.6773333 84.3826667,13.3833333 84.588,13.038 L84.588,13.038 L84.644,13.038 L84.644,14.06 L85.778,14.06 L85.778,9.538 C85.778,8.66066667 85.5003333,7.96766667 84.945,7.459 C84.3896667,6.95033333 83.6266667,6.696 82.656,6.696 C82.0586667,6.696 81.515,6.81733333 81.025,7.06 C80.535,7.30266667 80.15,7.63866667 79.87,8.068 L79.87,8.068 L80.766,8.74 C80.962,8.432 81.228,8.19166667 81.564,8.019 C81.9,7.84633333 82.2686667,7.76 82.67,7.76 C83.2393333,7.76 83.7106667,7.921 84.084,8.243 C84.4573333,8.565 84.644,8.992 84.644,9.524 L84.644,9.524 L84.644,9.958 C84.448,9.83666667 84.1656667,9.72933333 83.797,9.636 C83.4283333,9.54266667 83.0293333,9.496 82.6,9.496 C81.732,9.496 81.0133333,9.70833333 80.444,10.133 C79.8746667,10.5576667 79.59,11.148 79.59,11.904 C79.59,12.3613333 79.702,12.7696667 79.926,13.129 C80.15,13.4883333 80.4673333,13.7706667 80.878,13.976 C81.2886667,14.1813333 81.7553333,14.284 82.278,14.284 Z M82.39,13.234 C81.9326667,13.234 81.5546667,13.1126667 81.256,12.87 C80.9573333,12.6273333 80.808,12.31 80.808,11.918 C80.808,11.4886667 80.9736667,11.1386667 81.305,10.868 C81.6363333,10.5973333 82.1286667,10.462 82.782,10.462 C83.146,10.462 83.4913333,10.5086667 83.818,10.602 C84.1446667,10.6953333 84.42,10.8166667 84.644,10.966 C84.644,11.3766667 84.5413333,11.7546667 84.336,12.1 C84.1306667,12.4453333 83.8553333,12.7206667 83.51,12.926 C83.1646667,13.1313333 82.7913333,13.234 82.39,13.234 Z M89.656,14.284 C90.1786667,14.284 90.6546667,14.1953333 91.084,14.018 C91.5133334,13.8406667 91.854,13.5863333 92.106,13.255 C92.358,12.9236667 92.484,12.5386667 92.484,12.1 C92.484,11.596 92.3066667,11.169 91.952,10.819 C91.5973334,10.469 91.07,10.2053333 90.37,10.028 L90.37,10.028 L89.334,9.762 C88.9233334,9.65933333 88.6153334,9.52633333 88.41,9.363 C88.2046667,9.19966667 88.102,8.98733333 88.102,8.726 C88.102,8.446 88.249,8.215 88.543,8.033 C88.837,7.851 89.18,7.76 89.572,7.76 C90.384,7.76 90.9486667,8.07733333 91.266,8.712 L91.266,8.712 L92.302,8.236 C92.0966667,7.75066667 91.749,7.37266667 91.259,7.102 C90.769,6.83133333 90.2113334,6.696 89.586,6.696 C89.11,6.696 88.6666667,6.78 88.256,6.948 C87.8453334,7.116 87.5163334,7.35633333 87.269,7.669 C87.0216667,7.98166667 86.898,8.34333333 86.898,8.754 C86.898,9.286 87.08,9.72 87.444,10.056 C87.808,10.392 88.2746667,10.63 88.844,10.77 L88.844,10.77 L89.712,10.994 C90.2533334,11.1246667 90.65,11.281 90.902,11.463 C91.154,11.645 91.28,11.8853333 91.28,12.184 C91.28,12.52 91.1213334,12.779 90.804,12.961 C90.4866667,13.143 90.104,13.234 89.656,13.234 C89.236,13.234 88.851,13.1173333 88.501,12.884 C88.151,12.6506667 87.8873334,12.3193333 87.71,11.89 L87.71,11.89 L86.646,12.366 C86.8606667,12.926 87.2246667,13.3856667 87.738,13.745 C88.2513334,14.1043333 88.8906667,14.284 89.656,14.284 Z M96.264,14.172 C96.488,14.172 96.6723334,14.158 96.817,14.13 C96.9616667,14.102 97.104,14.0553333 97.244,13.99 L97.244,13.99 L97.244,12.828 C96.992,12.9866667 96.7306667,13.066 96.46,13.066 C96.124,13.066 95.8673334,12.9633333 95.69,12.758 C95.5406667,12.5713333 95.466,12.282 95.466,11.89 L95.466,11.89 L95.466,7.998 L97.202,7.998 L97.202,6.92 L95.466,6.92 L95.466,4.904 L94.276,4.904 L94.276,6.92 L93.03,6.92 L93.03,7.998 L94.276,7.998 L94.276,12.184 C94.276,12.52 94.3226667,12.8046667 94.416,13.038 C94.5093334,13.2713333 94.6493334,13.4766667 94.836,13.654 C95.004,13.8126667 95.2116667,13.9386667 95.459,14.032 C95.7063334,14.1253333 95.9746667,14.172 96.264,14.172 Z M101.08,14.284 C101.602667,14.284 102.078667,14.1953333 102.508,14.018 C102.937333,13.8406667 103.278,13.5863333 103.53,13.255 C103.782,12.9236667 103.908,12.5386667 103.908,12.1 C103.908,11.596 103.730667,11.169 103.376,10.819 C103.021333,10.469 102.494,10.2053333 101.794,10.028 L101.794,10.028 L100.758,9.762 C100.347333,9.65933333 100.039333,9.52633333 99.834,9.363 C99.6286667,9.19966667 99.526,8.98733333 99.526,8.726 C99.526,8.446 99.673,8.215 99.967,8.033 C100.261,7.851 100.604,7.76 100.996,7.76 C101.808,7.76 102.372667,8.07733333 102.69,8.712 L102.69,8.712 L103.726,8.236 C103.520667,7.75066667 103.173,7.37266667 102.683,7.102 C102.193,6.83133333 101.635333,6.696 101.01,6.696 C100.534,6.696 100.090667,6.78 99.68,6.948 C99.2693334,7.116 98.9403334,7.35633333 98.693,7.669 C98.4456667,7.98166667 98.322,8.34333333 98.322,8.754 C98.322,9.286 98.504,9.72 98.868,10.056 C99.232,10.392 99.6986667,10.63 100.268,10.77 L100.268,10.77 L101.136,10.994 C101.677333,11.1246667 102.074,11.281 102.326,11.463 C102.578,11.645 102.704,11.8853333 102.704,12.184 C102.704,12.52 102.545333,12.779 102.228,12.961 C101.910667,13.143 101.528,13.234 101.08,13.234 C100.66,13.234 100.275,13.1173333 99.925,12.884 C99.575,12.6506667 99.3113334,12.3193333 99.134,11.89 L99.134,11.89 L98.07,12.366 C98.2846667,12.926 98.6486667,13.3856667 99.162,13.745 C99.6753334,14.1043333 100.314667,14.284 101.08,14.284 Z" id="Podcasts" fill="#3C4043" fill-rule="nonzero"></path>
            <path d="M31.6213333,6.81333333 C32.5033333,6.81333333 33.2002222,7.20533333 33.5595556,7.64088889 L33.614,7.64088889 L33.614,7.042 L35.1602222,7.042 L35.1602222,13.6515556 C35.1602222,16.3737778 33.5595556,17.4844444 31.6648889,17.4844444 C29.8791111,17.4844444 28.8011111,16.2866667 28.3982222,15.3066667 L29.8028889,14.7186667 C30.0533333,15.3175556 30.6631111,16.0253333 31.654,16.0253333 C32.8626667,16.0253333 33.614,15.274 33.614,13.8693333 L33.614,13.3357778 L33.5595556,13.3357778 C33.2002222,13.7822222 32.5033333,14.1742222 31.6213333,14.1742222 C29.7811111,14.1742222 28.0933333,12.5626667 28.0933333,10.5046667 C28.0933333,8.42488889 29.7811111,6.81333333 31.6213333,6.81333333 Z M15.6691111,6.92222222 C17.7053333,6.92222222 19.3604444,8.46844444 19.3604444,10.6026667 C19.3604444,12.726 17.7053333,14.2831111 15.6691111,14.2831111 C13.6328889,14.2831111 11.9777778,12.726 11.9777778,10.6026667 C11.9777778,8.46844444 13.6328889,6.92222222 15.6691111,6.92222222 Z M23.7268889,6.92222222 C25.7631111,6.92222222 27.4182222,8.46844444 27.4182222,10.6026667 C27.4182222,12.726 25.7631111,14.2831111 23.7268889,14.2831111 C21.6906667,14.2831111 20.0355556,12.726 20.0355556,10.6026667 C20.0355556,8.46844444 21.6906667,6.92222222 23.7268889,6.92222222 Z M42.1291111,6.92222222 C44.0346667,6.92222222 44.9711111,8.43577778 45.276,9.26333333 L45.4393333,9.67711111 L40.5175556,11.7133333 C40.8986667,12.4428889 41.4757778,12.824 42.3033333,12.824 C43.1308889,12.824 43.6971111,12.4211111 44.1217778,11.8113333 L45.374,12.6497778 C44.9602222,13.2486667 43.9911111,14.2831111 42.3033333,14.2831111 C40.2126667,14.2831111 38.6555556,12.6606667 38.6555556,10.6026667 C38.6555556,8.414 40.2344444,6.92222222 42.1291111,6.92222222 Z M6.13044444,2.78444444 C7.87266667,2.78444444 9.114,3.47044444 10.0504444,4.36333333 L8.93977778,5.46311111 C8.27555556,4.83155556 7.37177778,4.34155556 6.13044444,4.34155556 C3.83288889,4.34155556 2.03622222,6.19266667 2.03622222,8.49022222 C2.03622222,10.7877778 3.83288889,12.6388889 6.13044444,12.6388889 C7.62222222,12.6388889 8.47155556,12.04 9.016,11.4955556 C9.46244444,11.0491111 9.75644444,10.4066667 9.86533333,9.53555556 L6.13044444,9.53555556 L6.13044444,7.97844444 L11.3897778,7.97844444 C11.4442222,8.26155556 11.4768889,8.58822222 11.4768889,8.95844444 C11.4768889,10.1344444 11.1611111,11.5826667 10.1266667,12.6062222 C9.114,13.6515556 7.82911111,14.2068889 6.13044444,14.2068889 C2.97266667,14.2068889 0.326666667,11.648 0.326666667,8.50111111 C0.326666667,5.34333333 2.97266667,2.78444444 6.13044444,2.78444444 Z M37.8715556,3.22 L37.8715556,14.0326667 L36.26,14.0326667 L36.26,3.22 L37.8715556,3.22 Z M15.6691111,8.35955556 C14.5475556,8.35955556 13.5893333,9.26333333 13.5893333,10.5917778 C13.5893333,11.9093333 14.5584444,12.824 15.6691111,12.824 C16.7797778,12.824 17.7488889,11.9093333 17.7488889,10.5917778 C17.7488889,9.26333333 16.7797778,8.35955556 15.6691111,8.35955556 Z M23.7268889,8.35955556 C22.6053333,8.35955556 21.6471111,9.26333333 21.6471111,10.5917778 C21.6471111,11.9093333 22.6162222,12.824 23.7268889,12.824 C24.8375556,12.824 25.8066667,11.9093333 25.8066667,10.5917778 C25.8066667,9.26333333 24.8484444,8.35955556 23.7268889,8.35955556 Z M31.7628889,8.26155556 C30.6522222,8.26155556 29.7157778,9.20888889 29.7157778,10.5046667 C29.7157778,11.7895556 30.6522222,12.726 31.7628889,12.726 C32.8626667,12.726 33.7337778,11.8004444 33.7228889,10.5046667 C33.7228889,9.20888889 32.8626667,8.26155556 31.7628889,8.26155556 Z M42.1835556,8.33777778 C41.356,8.33777778 40.2126667,9.06733333 40.2562222,10.4828889 L43.5446667,9.12177778 C43.3704444,8.65355556 42.826,8.33777778 42.1835556,8.33777778 Z" id="Combined-Shape" fill="#3C4043" fill-rule="nonzero"></path>
        </g>
        <path d="M40.1123438,14.2 L40.7866406,12.3296875 L43.7889844,12.3296875 L44.473125,14.2 L45.4427344,14.2 L42.70125,7.03375 L41.874375,7.03375 L39.1378125,14.2 L40.1123438,14.2 Z M43.5084375,11.5520313 L41.0721094,11.5520313 L42.2878125,8.20023438 L43.5084375,11.5520313 Z M47.5010625,14.2 L47.5010625,11.9310156 L48.0277031,11.9310156 L50.0309062,14.2 L51.1777031,14.2 L48.7758281,11.4585156 L51.0005156,8.87453125 L49.9029375,8.87453125 L47.9489531,11.12875 L47.5010625,11.12875 L47.5010625,8.87453125 L46.5855937,8.87453125 L46.5855937,14.2 L47.5010625,14.2 Z M54.5600156,14.2984375 C55.0390781,14.2984375 55.4631797,14.1835938 55.8323203,13.9539063 C56.2014609,13.7242188 56.485289,13.4034766 56.6838047,12.9916797 C56.8823203,12.5798828 56.9815781,12.1147656 56.9815781,11.5963281 L56.9815781,11.5963281 L56.9815781,11.5323438 C56.9815781,10.6989063 56.7576328,10.0311719 56.3097422,9.52914063 C55.8618515,9.02710938 55.2753281,8.77609375 54.5501719,8.77609375 C54.0809531,8.77609375 53.663414,8.88929688 53.2975547,9.11570312 C52.9316953,9.34210937 52.6462265,9.66367188 52.4411484,10.0803906 C52.2360703,10.4971094 52.1335312,10.9663281 52.1335312,11.4880469 L52.1335312,11.4880469 L52.1335312,11.5520313 C52.1335312,12.3789062 52.3574765,13.0433594 52.8053672,13.5453906 C53.2532578,14.0474219 53.8381406,14.2984375 54.5600156,14.2984375 Z M54.5600156,13.5552344 C54.1006406,13.5552344 53.7339609,13.3764063 53.4599765,13.01875 C53.1859922,12.6610937 53.049,12.1869531 53.049,11.5963281 C53.049,10.9302344 53.1868125,10.4183594 53.4624375,10.0607031 C53.7380625,9.70304688 54.1006406,9.52421875 54.5501719,9.52421875 C55.0095469,9.52421875 55.3778672,9.70550781 55.6551328,10.0680859 C55.9323984,10.4306641 56.0710312,10.9039844 56.0710312,11.4880469 C56.0710312,12.1410156 55.9348594,12.6487891 55.6625156,13.0113672 C55.3901719,13.3739453 55.0226719,13.5552344 54.5600156,13.5552344 Z M60.5656875,8.1165625 L61.136625,6.45789062 L60.2802187,6.45789062 L60.0144375,8.1165625 L60.5656875,8.1165625 Z M60.3392812,14.2984375 C61.0545937,14.2984375 61.6230703,14.0367578 62.0447109,13.5133984 C62.4663515,12.9900391 62.6771719,12.296875 62.6771719,11.4339062 C62.6771719,10.5184375 62.4917812,9.6653125 62.121,8.87453125 L62.121,8.87453125 L61.1612344,8.87453125 C61.5484219,9.8228125 61.7502187,10.6759375 61.766625,11.4339062 C61.766625,12.0310938 61.6271719,12.5347656 61.3482656,12.9449219 C61.0693594,13.3550781 60.7182656,13.5601563 60.2949844,13.5601563 C59.6354531,13.5601563 59.3056875,13.0597656 59.3056875,12.0589844 L59.3056875,12.0589844 L59.3056875,8.87453125 L58.3902187,8.87453125 L58.3902187,12.1377344 C58.3967812,12.8432031 58.564125,13.3796875 58.89225,13.7471875 C59.220375,14.1146875 59.7027187,14.2984375 60.3392812,14.2984375 Z M66.2908125,14.2984375 C66.7501875,14.2984375 67.161164,14.186875 67.5237422,13.96375 C67.8863203,13.740625 68.1676875,13.4362891 68.3678437,13.0507422 C68.568,12.6651953 68.6680781,12.2427344 68.6680781,11.7833594 L68.6680781,11.7833594 L68.6680781,11.6996875 C68.6680781,10.8039063 68.3399531,10.1132031 67.6837031,9.62757812 L67.6837031,9.62757812 L69.0815156,9.62757812 L69.0815156,8.87453125 L66.2465156,8.87453125 C65.7871406,8.8778125 65.3794453,8.99101563 65.0234297,9.21414062 C64.667414,9.43726563 64.3926093,9.74734375 64.1990156,10.144375 C64.0054218,10.5414063 63.908625,10.9892969 63.908625,11.4880469 L63.908625,11.4880469 L63.908625,11.5520313 C63.908625,12.38875 64.1268281,13.0556641 64.5632343,13.5527734 C64.9996406,14.0498828 65.5755,14.2984375 66.2908125,14.2984375 Z M66.2908125,13.5552344 C65.838,13.5552344 65.4803437,13.3788672 65.2178437,13.0261328 C64.9553437,12.6733984 64.8240937,12.1967969 64.8240937,11.5963281 C64.8240937,10.9532031 64.9545234,10.4642969 65.2153828,10.1296094 C65.4762422,9.79492188 65.8314375,9.62757812 66.2809687,9.62757812 C66.7370625,9.62757812 67.0971797,9.7965625 67.3613203,10.1345313 C67.6254609,10.4725 67.7575312,10.9236719 67.7575312,11.4880469 C67.7575312,12.1541406 67.6271015,12.6651953 67.3662422,13.0212109 C67.1053828,13.3772266 66.7469062,13.5552344 66.2908125,13.5552344 Z M72.7542187,14.2984375 C73.1020312,14.2984375 73.400625,14.213125 73.65,14.0425 L73.65,14.0425 L73.4432812,13.4026563 C73.2825,13.4879688 73.1315625,13.530625 72.9904687,13.530625 C72.6459375,13.530625 72.4736718,13.3124219 72.4736718,12.8760156 L72.4736718,12.8760156 L72.4736718,9.6128125 L74.2996875,9.6128125 L74.2996875,8.87453125 L69.8503125,8.87453125 L69.8503125,9.6128125 L71.5582031,9.6128125 L71.5582031,12.8563281 C71.5614843,13.3353906 71.6591015,13.6955078 71.8510547,13.9366797 C72.0430078,14.1778516 72.3440625,14.2984375 72.7542187,14.2984375 Z M77.6721562,14.2984375 C78.3218437,14.2984375 78.8558671,14.1466797 79.2742265,13.8431641 C79.6925859,13.5396484 79.9017656,13.1335937 79.9017656,12.625 L79.9017656,12.625 L78.9912187,12.625 C78.9912187,12.8907812 78.8640703,13.1139063 78.6097734,13.294375 C78.3554765,13.4748438 78.0429375,13.5650781 77.6721562,13.5650781 C77.2849687,13.5650781 76.970789,13.4846875 76.7296171,13.3239063 C76.4884453,13.163125 76.3678593,12.9564063 76.3678593,12.70375 C76.3678593,12.1525 76.7517656,11.8670313 77.5195781,11.8473438 L77.5195781,11.8473438 L78.6220781,11.8473438 L78.6220781,11.1189063 L77.6573906,11.1189063 C76.8567656,11.1189063 76.4564531,10.8564062 76.4564531,10.3314063 C76.4564531,10.0885938 76.5671953,9.89253906 76.7886796,9.74324219 C77.010164,9.59394531 77.3046562,9.51929688 77.6721562,9.51929688 C78.02325,9.51929688 78.3161015,9.60214844 78.5507109,9.76785156 C78.7853203,9.93355469 78.902625,10.13125 78.902625,10.3609375 L78.902625,10.3609375 L79.8131718,10.3609375 C79.8131718,9.895 79.608914,9.51519531 79.2003984,9.22152344 C78.7918828,8.92785156 78.2824687,8.78101563 77.6721562,8.78101563 C77.0093437,8.78101563 76.4884453,8.9171875 76.1094609,9.18953125 C75.7304765,9.461875 75.5409843,9.84085938 75.5409843,10.3264844 C75.5409843,10.5660156 75.621375,10.7858594 75.7821562,10.9860156 C75.9429375,11.1861719 76.1677031,11.3453125 76.4564531,11.4634375 C75.7837968,11.68 75.4474687,12.0934375 75.4474687,12.70375 C75.4474687,13.1860938 75.6509062,13.5724609 76.0577812,13.8628516 C76.4646562,14.1532422 77.0027812,14.2984375 77.6721562,14.2984375 Z M86.2480312,14.2984375 C86.7074062,14.2984375 87.1183828,14.186875 87.4809609,13.96375 C87.843539,13.740625 88.1249062,13.4362891 88.3250624,13.0507422 C88.5252187,12.6651953 88.6252968,12.2427344 88.6252968,11.7833594 L88.6252968,11.7833594 L88.6252968,11.6996875 C88.6252968,10.8039063 88.2971718,10.1132031 87.6409218,9.62757812 L87.6409218,9.62757812 L89.0387343,9.62757812 L89.0387343,8.87453125 L86.2037343,8.87453125 C85.7443593,8.8778125 85.336664,8.99101563 84.9806484,9.21414062 C84.6246328,9.43726563 84.3498281,9.74734375 84.1562343,10.144375 C83.9626406,10.5414063 83.8658437,10.9892969 83.8658437,11.4880469 L83.8658437,11.4880469 L83.8658437,11.5520313 C83.8658437,12.38875 84.0840468,13.0556641 84.5204531,13.5527734 C84.9568593,14.0498828 85.5327187,14.2984375 86.2480312,14.2984375 Z M86.2480312,13.5552344 C85.7952187,13.5552344 85.4375624,13.3788672 85.1750624,13.0261328 C84.9125624,12.6733984 84.7813124,12.1967969 84.7813124,11.5963281 C84.7813124,10.9532031 84.9117421,10.4642969 85.1726015,10.1296094 C85.4334609,9.79492188 85.7886562,9.62757812 86.2381874,9.62757812 C86.6942812,9.62757812 87.0543984,9.7965625 87.318539,10.1345313 C87.5826796,10.4725 87.7147499,10.9236719 87.7147499,11.4880469 C87.7147499,12.1541406 87.5843203,12.6651953 87.3234609,13.0212109 C87.0626015,13.3772266 86.7041249,13.5552344 86.2480312,13.5552344 Z M92.7114374,14.2984375 C93.0592499,14.2984375 93.3578437,14.213125 93.6072187,14.0425 L93.6072187,14.0425 L93.4004999,13.4026563 C93.2397187,13.4879688 93.0887812,13.530625 92.9476874,13.530625 C92.6031562,13.530625 92.4308906,13.3124219 92.4308906,12.8760156 L92.4308906,12.8760156 L92.4308906,9.6128125 L94.2569062,9.6128125 L94.2569062,8.87453125 L89.8075312,8.87453125 L89.8075312,9.6128125 L91.5154218,9.6128125 L91.5154218,12.8563281 C91.5187031,13.3353906 91.6163203,13.6955078 91.8082734,13.9366797 C92.0002265,14.1778516 92.3012812,14.2984375 92.7114374,14.2984375 Z M97.7917968,14.2984375 C98.2708593,14.2984375 98.6949609,14.1835938 99.0641015,13.9539063 C99.4332421,13.7242188 99.7170702,13.4034766 99.9155859,12.9916797 C100.114101,12.5798828 100.213359,12.1147656 100.213359,11.5963281 L100.213359,11.5963281 L100.213359,11.5323438 C100.213359,10.6989063 99.989414,10.0311719 99.5415234,9.52914063 C99.0936327,9.02710938 98.5071093,8.77609375 97.7819531,8.77609375 C97.3127343,8.77609375 96.8951952,8.88929688 96.5293359,9.11570312 C96.1634765,9.34210937 95.8780077,9.66367188 95.6729296,10.0803906 C95.4678515,10.4971094 95.3653124,10.9663281 95.3653124,11.4880469 L95.3653124,11.4880469 L95.3653124,11.5520313 C95.3653124,12.3789062 95.5892577,13.0433594 96.0371484,13.5453906 C96.485039,14.0474219 97.0699218,14.2984375 97.7917968,14.2984375 Z M97.7917968,13.5552344 C97.3324218,13.5552344 96.9657421,13.3764063 96.6917577,13.01875 C96.4177734,12.6610937 96.2807812,12.1869531 96.2807812,11.5963281 C96.2807812,10.9302344 96.4185937,10.4183594 96.6942187,10.0607031 C96.9698437,9.70304688 97.3324218,9.52421875 97.7819531,9.52421875 C98.2413281,9.52421875 98.6096484,9.70550781 98.886914,10.0680859 C99.1641796,10.4306641 99.3028124,10.9039844 99.3028124,11.4880469 C99.3028124,12.1410156 99.1666406,12.6487891 98.8942968,13.0113672 C98.6219531,13.3739453 98.2544531,13.5552344 97.7917968,13.5552344 Z" id="Ακούστεστο" fill="#5F6368" fill-rule="nonzero"></path>
    </g>
</svg>