<?xml version="1.0" encoding="UTF-8" standalone="no"?>
<svg
   xmlns:dc="http://purl.org/dc/elements/1.1/"
   xmlns:cc="http://creativecommons.org/ns#"
   xmlns:rdf="http://www.w3.org/1999/02/22-rdf-syntax-ns#"
   xmlns:svg="http://www.w3.org/2000/svg"
   xmlns="http://www.w3.org/2000/svg"
   xmlns:sodipodi="http://sodipodi.sourceforge.net/DTD/sodipodi-0.dtd"
   xmlns:inkscape="http://www.inkscape.org/namespaces/inkscape"
   width="800px"
   height="800px"
   viewBox="0 0 800 800"
   version="1.1"
   id="SVGRoot"
   sodipodi:docname="timen-logo.svg"
   inkscape:version="1.0.2 (e86c8708, 2021-01-15)">
  <defs
     id="defs10" />
  <sodipodi:namedview
     id="base"
     pagecolor="#ffffff"
     bordercolor="#666666"
     borderopacity="1.0"
     inkscape:pageopacity="0.0"
     inkscape:pageshadow="2"
     inkscape:zoom="0.25"
     inkscape:cx="343.5"
     inkscape:cy="539.5"
     inkscape:document-units="px"
     inkscape:current-layer="layer1"
     inkscape:document-rotation="0"
     showgrid="false"
     inkscape:window-width="1252"
     inkscape:window-height="943"
     inkscape:window-x="285"
     inkscape:window-y="25"
     inkscape:window-maximized="0" />
  <metadata
     id="metadata13">
    <rdf:RDF>
      <cc:Work
         rdf:about="">
        <dc:format>image/svg+xml</dc:format>
        <dc:type
           rdf:resource="http://purl.org/dc/dcmitype/StillImage" />
        <dc:title></dc:title>
      </cc:Work>
    </rdf:RDF>
  </metadata>
  <g
     inkscape:label="Layer 1"
     inkscape:groupmode="layer"
     id="layer1">
    <text
       xml:space="preserve"
       style="font-style:normal;font-weight:normal;font-size:234.183px;line-height:0.95;font-family:sans-serif;fill:#000000;fill-opacity:1;stroke:none;stroke-width:1.2197"
       x="0"
       y="481.58859"
       id="text29"
       transform="scale(0.90377614,1.1064687)"><tspan
         sodipodi:role="line"
         id="tspan27"
         x="0"
         y="481.58859"
         style="font-style:normal;font-variant:normal;font-weight:normal;font-stretch:normal;font-size:234.183px;font-family:Trattatello;-inkscape-font-specification:Trattatello;fill:#000000;stroke-width:1.2197"><tspan
   style="fill:#ff0000"
   id="tspan250">Τ</tspan>ιμής</tspan><tspan
         sodipodi:role="line"
         x="0"
         y="717.79681"
         id="tspan31"
         style="font-style:normal;font-variant:normal;font-weight:normal;font-stretch:normal;font-size:234.183px;font-family:Trattatello;-inkscape-font-specification:Trattatello;fill:#000000;stroke-width:1.2197">  <tspan
   style="fill:#ff0000"
   id="tspan252">Έ</tspan>νεκεν</tspan></text>
    <g
       style="fill:#000000"
       id="g62"
       transform="matrix(6.4416195,0,0,7.2849893,307.13386,-47.61356)">
      <g
         id="g35"
         style="fill:#000000">
        <path
           fill="#000000"
           d="m 12.877,74.204 c 0.051,-0.068 0.107,-0.175 0.169,-0.314 -0.099,0.187 -0.158,0.295 -0.169,0.314 z"
           id="path33"
           style="fill:#000000" />
      </g>
      <g
         id="g39"
         style="fill:#000000">
        <polygon
           fill="#000000"
           points="12.874,74.207 12.874,74.21 12.877,74.204 "
           id="polygon37"
           style="fill:#000000" />
      </g>
      <g
         id="g45"
         style="fill:#000000">
        <path
           fill-rule="evenodd"
           clip-rule="evenodd"
           d="m 73.675,36.703 c 1.596,-3.89 2.092,-5.334 1.519,-5.024 -0.002,-10e-4 -0.006,0.001 -0.006,0.001 -0.017,0.013 -0.123,0.095 -0.302,0.23 -1.28,0.992 -6.289,4.939 -8.667,7.883 -0.542,0.673 -1.077,1.434 -1.589,2.219 0.465,-1.001 0.928,-2.009 1.381,-3.05 0.035,-0.079 0.035,-0.162 0.02,-0.241 1.119,-0.999 3.629,-3.547 5.535,-7.761 2.524,-5.585 6.654,-15.555 4.77,-17.204 -1.884,-1.656 -5.697,3.059 -6.485,5.502 -0.54,1.674 -3.001,9.73 -4.089,15.11 0.118,-3.579 0.254,-8.696 0.276,-13.901 0.015,-3.438 -0.047,-5.676 -0.147,-7.174 V 13.28 L 65.89,13.273 c -0.18,-2.63 -0.482,-2.943 -0.712,-3.313 0,0 -0.677,-1.65 -1.39,-1.038 -0.713,0.614 -1.779,3.233 -1.879,6.108 -0.091,2.706 1.577,17.818 3.337,23.293 0.003,0.105 0.011,0.2 0.02,0.29 -0.003,0.007 -0.011,0.009 -0.015,0.016 -1.857,4.265 -3.825,8.186 -5.85,11.819 0.753,-3.496 2.022,-10.737 0.776,-15.224 -1.69,-6.081 -5.256,-11.323 -6.271,-12.206 -0.643,-0.558 -0.922,-0.089 -0.967,0.545 0,0.003 0,0.005 0,0.008 -0.014,0.218 0.002,0.453 0.037,0.674 0.315,4.066 2.647,9.833 3.265,12.467 0.549,2.336 2.069,11.85 2.545,14.844 -2.865,5.026 -5.837,9.451 -8.791,13.332 0.96,-1.912 1.992,-5.231 3.034,-8.586 1.384,-4.457 0.4,-14.449 -1.538,-17.804 0.486,2.698 -1.719,23.777 -2.075,27.136 -0.018,0.022 -0.034,0.043 -0.051,0.065 C 49.179,63.268 48.46,54.864 47.204,52.298 45.73,49.284 39.499,37.53 39.041,34.277 c -0.542,3.87 1.257,13.191 3.33,16.825 1.982,3.477 6.225,10.048 6.955,14.646 -2.878,3.705 -5.727,6.899 -8.43,9.625 -0.042,-0.521 -0.14,-1.689 -0.285,-3.284 v 0.003 C 40.519,58.363 38.258,50.45 36.9,47.367 36.838,47.211 36.777,47.055 36.714,46.924 36.64,46.748 36.57,46.605 36.51,46.549 c 0.008,0.015 0.017,0.034 0.025,0.049 -0.182,-0.303 -0.366,-0.5 -0.553,-0.544 -2.658,-0.627 0.403,14.188 1.565,18.642 1.035,3.954 2.887,9.532 3.291,10.737 -2.47,2.486 -4.813,4.584 -6.943,6.334 1.342,-3.883 4.589,-15.683 -2.354,-23.306 0.004,0.024 0.009,0.05 0.014,0.074 -0.028,-0.028 -0.052,-0.062 -0.08,-0.089 0.562,3.33 2.997,15.134 1.905,23.378 0,0 0.071,-0.358 0.175,-0.974 -0.028,0.489 -0.055,0.915 -0.078,1.263 -6.124,4.964 -10.369,6.99 -10.471,7.038 -0.208,0.095 -0.299,0.342 -0.202,0.551 0.096,0.207 0.345,0.296 0.551,0.202 0.048,-0.023 3.777,-1.777 9.253,-6.005 2.881,1.758 5.787,3.024 8.942,3.495 3.296,0.495 1.885,1.653 10.946,-0.612 0,0 -5.023,-4.312 -8.783,-4.631 -2.985,-0.253 -7.528,0.16 -10.015,0.891 1.448,-1.157 2.998,-2.475 4.625,-3.972 0.125,-0.116 0.259,-0.245 0.387,-0.363 1.074,0.299 3.637,0.834 6.981,0.35 4.459,-0.646 12.268,-2.035 12.547,-3.856 0.279,-1.82 -4.151,-2.316 -5.978,-1.84 -1.37,0.36 -8.406,2.328 -11.997,3.864 0.899,-0.878 1.827,-1.811 2.788,-2.826 2.594,-0.425 12.01,-2.187 15.832,-5.922 3.006,-2.938 4.032,-4.065 3.384,-4.01 -0.003,0.001 -0.005,0.001 -0.006,0.001 -0.021,0.007 -0.149,0.036 -0.367,0.093 -1.57,0.402 -7.732,2.039 -11.084,3.799 -2.031,1.068 -4.255,2.712 -5.913,4.031 2.906,-3.238 6.002,-7.1 9.106,-11.631 4.813,-1.829 7.966,-3.744 10.558,-6.401 2.102,-1.268 3.908,-2.345 4.777,-2.812 2.574,-1.386 5.943,-6.482 5.039,-8.013 -0.901,-1.532 -3.023,0.805 -3.023,0.805 -5.6,6.808 -14.351,13.865 -17.057,15.986 2.406,-3.543 4.81,-7.492 7.133,-11.875 2.132,-1.362 10.201,-6.76 12.245,-11.747 z"
           id="path41"
           style="fill:#000000" />
        <path
           fill-rule="evenodd"
           clip-rule="evenodd"
           d="m 62.437,10.075 c 0.024,0.15 0.062,0.322 0.146,0.515 z"
           id="path43"
           style="fill:#000000" />
      </g>
    </g>
  </g>
</svg>
