<?xml version="1.0" encoding="UTF-8" standalone="no"?>
<svg
   xmlns:dc="http://purl.org/dc/elements/1.1/"
   xmlns:cc="http://creativecommons.org/ns#"
   xmlns:rdf="http://www.w3.org/1999/02/22-rdf-syntax-ns#"
   xmlns:svg="http://www.w3.org/2000/svg"
   xmlns="http://www.w3.org/2000/svg"
   xmlns:sodipodi="http://sodipodi.sourceforge.net/DTD/sodipodi-0.dtd"
   xmlns:inkscape="http://www.inkscape.org/namespaces/inkscape"
   version="1.1"
   x="0px"
   y="0px"
   width="327.534"
   height="80"
   viewBox="0 0 327.534 80"
   enable-background="new 0 0 164.8566 40"
   xml:space="preserve"
   id="svg76"
   sodipodi:docname="sample.svg"
   inkscape:export-filename="/Users/atma/Desktop/sample.svg.png"
   inkscape:export-xdpi="96.449997"
   inkscape:export-ydpi="96.449997"
   inkscape:version="1.0.2 (e86c8708, 2021-01-15)"><metadata
   id="metadata82"><rdf:RDF><cc:Work
       rdf:about=""><dc:format>image/svg+xml</dc:format><dc:type
         rdf:resource="http://purl.org/dc/dcmitype/StillImage" /><dc:title></dc:title></cc:Work></rdf:RDF></metadata><defs
   id="defs80" /><sodipodi:namedview
   pagecolor="#ffffff"
   bordercolor="#666666"
   borderopacity="1"
   objecttolerance="10"
   gridtolerance="10"
   guidetolerance="10"
   inkscape:pageopacity="0"
   inkscape:pageshadow="2"
   inkscape:window-width="1680"
   inkscape:window-height="997"
   id="namedview78"
   showgrid="false"
   inkscape:zoom="2.315108"
   inkscape:cx="165.06666"
   inkscape:cy="86.851718"
   inkscape:window-x="0"
   inkscape:window-y="25"
   inkscape:window-maximized="0"
   inkscape:current-layer="svg76" />
<g
   id="US"
   transform="matrix(1.9867778,0,0,2,0.848432,0.36483586)">
	<path
   fill="#a6a6a6"
   d="M 155.3273,0 H 9.5347 C 9.168,0 8.8057,0 8.4399,0.002 8.1338,0.0039 7.8301,0.0098 7.521,0.0146 6.8555,0.0312 6.1816,0.0723 5.5171,0.1914 4.8477,0.3086 4.2256,0.5088 3.6162,0.8184 3.0176,1.125 2.4707,1.5234 1.9976,1.9971 1.519,2.4707 1.1226,3.0195 0.8193,3.6182 0.5083,4.2266 0.311,4.8516 0.1943,5.5215 0.0737,6.1836 0.0322,6.8535 0.0151,7.5235 0.0059,7.8301 0.0049,8.1377 0,8.4443 0,8.8066 0,9.1699 0,9.5361 v 20.9287 c 0,0.3692 0,0.7305 0,1.0938 0.0049,0.3105 0.0059,0.6113 0.0151,0.9219 0.0171,0.6699 0.0586,1.3398 0.1792,2.0019 0.1167,0.6699 0.314,1.2979 0.625,1.9043 0.3032,0.5957 0.6997,1.1446 1.1782,1.6143 0.4731,0.4775 1.02,0.875 1.6187,1.1787 0.6094,0.3125 1.2314,0.5098 1.9009,0.6308 0.6645,0.1192 1.3384,0.1583 2.0039,0.1768 0.3091,0.0068 0.6128,0.0107 0.9189,0.0107 C 8.8057,40 9.168,40 9.5347,40 h 145.7927 c 0.3594,0 0.7246,0 1.084,-0.002 0.3047,0 0.6172,-0.0039 0.9219,-0.0107 0.6699,-0.0185 1.3418,-0.0576 2,-0.1768 0.6699,-0.121 1.2929,-0.3183 1.9082,-0.6308 0.5976,-0.3037 1.1445,-0.7012 1.6172,-1.1787 0.4765,-0.4697 0.873,-1.0186 1.1816,-1.6143 0.3066,-0.6064 0.5059,-1.2344 0.6191,-1.9043 0.1231,-0.6621 0.1621,-1.332 0.1856,-2.0019 0.004,-0.3106 0.004,-0.6114 0.004,-0.9219 0.008,-0.3633 0.008,-0.7246 0.008,-1.0938 V 9.5361 c 0,-0.3662 0,-0.7295 -0.008,-1.0918 0,-0.3066 0,-0.6143 -0.004,-0.9209 -0.0235,-0.6699 -0.0625,-1.3398 -0.1856,-2.002 -0.1132,-0.6699 -0.3125,-1.2949 -0.6191,-1.9033 -0.3086,-0.5986 -0.7051,-1.1475 -1.1816,-1.6211 -0.4727,-0.4736 -1.0196,-0.8721 -1.6172,-1.1787 -0.6153,-0.3096 -1.2383,-0.5098 -1.9082,-0.627 -0.6582,-0.1191 -1.3301,-0.1602 -2,-0.1768 C 157.0286,0.0096 156.7161,0.0038 156.4114,0.0018 156.0519,0 155.6867,0 155.3273,0 Z"
   id="path10" />
	<path
   d="m 8.4448,39.125 c -0.3047,0 -0.602,-0.0039 -0.9043,-0.0107 C 6.9814,39.0986 6.3183,39.0674 5.6714,38.9512 5.061,38.8408 4.5186,38.6611 4.0147,38.4033 3.4932,38.1387 3.0245,37.7969 2.6177,37.3867 2.2036,36.9805 1.8633,36.5137 1.5972,35.9902 1.3379,35.4854 1.1607,34.9434 1.0542,34.333 0.9321,33.6602 0.9009,32.9775 0.8877,32.458 0.8814,32.2471 0.8731,31.5449 0.8731,31.5449 V 8.4443 c 0,0 0.0088,-0.6914 0.0146,-0.8945 C 0.9009,7.0259 0.9321,6.3438 1.0532,5.6777 1.1602,5.064 1.3374,4.5225 1.5967,4.0156 1.8623,3.4912 2.2031,3.022 2.6118,2.6177 3.0254,2.2036 3.4961,1.8609 4.0141,1.5952 4.5278,1.3345 5.0693,1.1562 5.6674,1.0513 6.3407,0.9307 7.0234,0.9004 7.5429,0.8872 L 8.4453,0.875 h 147.9611 l 0.9131,0.0127 c 0.5127,0.0127 1.1953,0.043 1.8584,0.1626 0.6025,0.1055 1.1475,0.2847 1.6709,0.5479 0.5127,0.2627 0.9824,0.6055 1.3916,1.0156 0.4092,0.4062 0.7519,0.8779 1.0234,1.4043 0.2578,0.5112 0.4336,1.0527 0.5352,1.6489 0.1162,0.6309 0.1523,1.2788 0.1738,1.8872 0.003,0.2832 0.003,0.5874 0.003,0.8901 0.008,0.375 0.008,0.7319 0.008,1.0918 v 20.9287 c 0,0.3633 0,0.7178 -0.008,1.0752 0,0.3252 0,0.6231 -0.004,0.9297 -0.0205,0.5889 -0.0566,1.2364 -0.1709,1.8535 -0.1035,0.6133 -0.2793,1.1553 -0.54,1.67 -0.2695,0.5195 -0.6123,0.9892 -1.0156,1.3857 -0.4131,0.418 -0.8819,0.7588 -1.3994,1.0225 -0.5186,0.2636 -1.0479,0.4384 -1.668,0.5498 -0.6406,0.1162 -1.3037,0.1474 -1.8692,0.1631 -0.2929,0.0068 -0.5996,0.0107 -0.8974,0.0107 l -1.084,0.002 z"
   id="path12" />
	<g
   id="XMLID_632_">
		<linearGradient
   id="XMLID_2_"
   gradientUnits="userSpaceOnUse"
   x1="20.098301"
   y1="7.4183002"
   x2="20.098301"
   y2="32.581299">
			<stop
   offset="0"
   style="stop-color:#F452FF"
   id="stop14" />
			<stop
   offset="1"
   style="stop-color:#832BC1"
   id="stop16" />
		</linearGradient>
		<path
   id="XMLID_662_"
   fill-rule="evenodd"
   clip-rule="evenodd"
   fill="url(#XMLID_2_)"
   d="m 32.1821,29.2281 c -0.2446,0.6213 -0.809,1.4961 -1.6094,2.1123 -0.4621,0.3559 -1.0138,0.6961 -1.7716,0.9206 -0.8078,0.2394 -1.8028,0.3203 -3.0412,0.3203 H 14.4366 c -1.2383,0 -2.2333,-0.0809 -3.0412,-0.3203 C 10.6376,32.0365 10.086,31.6963 9.6238,31.3404 8.8235,30.7241 8.259,29.8494 8.0144,29.2281 7.5217,27.9763 7.5167,26.556 7.5167,25.6615 v 0 -11.3234 0 c 0,-0.8945 0.005,-2.3148 0.4977,-3.5666 0.2446,-0.6213 0.809,-1.4961 1.6094,-2.1123 0.4621,-0.3559 1.0138,-0.6961 1.7716,-0.9206 0.8078,-0.2394 1.8028,-0.3203 3.0412,-0.3203 v 0 H 25.76 v 0 c 1.2383,0 2.2333,0.0809 3.0412,0.3203 0.7578,0.2245 1.3094,0.5648 1.7716,0.9206 0.8003,0.6163 1.3648,1.491 1.6094,2.1123 0.4927,1.2518 0.4977,2.6721 0.4977,3.5666 v 11.3234 c -1e-4,0.8944 -0.0051,2.3147 -0.4978,3.5666 z"
   style="fill:url(#XMLID_2_)" />
		<path
   id="XMLID_660_"
   fill-rule="evenodd"
   clip-rule="evenodd"
   fill="none"
   d="m 32.1821,29.2281 c -0.2446,0.6213 -0.809,1.4961 -1.6094,2.1123 -0.4621,0.3559 -1.0138,0.6961 -1.7716,0.9206 -0.8078,0.2394 -1.8028,0.3203 -3.0412,0.3203 H 14.4366 c -1.2383,0 -2.2333,-0.0809 -3.0412,-0.3203 C 10.6376,32.0365 10.086,31.6963 9.6238,31.3404 8.8235,30.7241 8.259,29.8494 8.0144,29.2281 7.5217,27.9763 7.5167,26.556 7.5167,25.6615 v 0 -11.3234 0 c 0,-0.8945 0.005,-2.3148 0.4977,-3.5666 0.2446,-0.6213 0.809,-1.4961 1.6094,-2.1123 0.4621,-0.3559 1.0138,-0.6961 1.7716,-0.9206 0.8078,-0.2394 1.8028,-0.3203 3.0412,-0.3203 v 0 H 25.76 v 0 c 1.2383,0 2.2333,0.0809 3.0412,0.3203 0.7578,0.2245 1.3094,0.5648 1.7716,0.9206 0.8003,0.6163 1.3648,1.491 1.6094,2.1123 0.4927,1.2518 0.4977,2.6721 0.4977,3.5666 v 11.3234 c -1e-4,0.8944 -0.0051,2.3147 -0.4978,3.5666 z" />
		<g
   id="XMLID_648_">
			<g
   id="g23">
				<path
   fill="#ffffff"
   d="m 21.9232,21.8815 c -0.3776,-0.3984 -1.0408,-0.6538 -1.8237,-0.6538 -0.783,0 -1.4462,0.2554 -1.8238,0.6538 -0.197,0.2079 -0.3012,0.421 -0.334,0.7246 -0.0636,0.5879 -0.0279,1.0941 0.041,1.9034 0.0656,0.7712 0.1902,1.7996 0.3528,2.847 0.1157,0.7454 0.2097,1.1477 0.2953,1.4358 0.1388,0.4669 0.6575,0.8752 1.4687,0.8752 0.8111,0 1.3298,-0.4084 1.4686,-0.8752 0.0856,-0.2881 0.1796,-0.6904 0.2953,-1.4358 0.1626,-1.0474 0.2872,-2.0758 0.3528,-2.847 0.0689,-0.8094 0.1046,-1.3156 0.041,-1.9034 -0.0328,-0.3035 -0.137,-0.5167 -0.334,-0.7246 z m -3.8811,-3.5473 c 0,1.1373 0.922,2.0593 2.0593,2.0593 1.1374,0 2.0594,-0.922 2.0594,-2.0593 0,-1.1374 -0.922,-2.0594 -2.0594,-2.0594 -1.1373,0 -2.0593,0.922 -2.0593,2.0594 z m 2.0338,-8.127 c -4.8163,0.0137 -8.7628,3.921 -8.8224,8.737 -0.0484,3.9013 2.442,7.2385 5.9195,8.4617 0.0844,0.0297 0.1701,-0.0404 0.1568,-0.1289 -0.0456,-0.3029 -0.0886,-0.6073 -0.1281,-0.9066 -0.014,-0.1058 -0.0814,-0.197 -0.1791,-0.2397 -2.7486,-1.2008 -4.6679,-3.9574 -4.6371,-7.1505 0.0404,-4.1904 3.4622,-7.6066 7.6526,-7.6405 4.2839,-0.0346 7.78,3.4402 7.78,7.7162 0,3.1611 -1.9109,5.8839 -4.6381,7.0751 -0.0977,0.0427 -0.1647,0.1342 -0.1786,0.2399 -0.0395,0.2992 -0.0825,0.6035 -0.128,0.9061 -0.0134,0.0885 0.0723,0.1586 0.1567,0.129 3.4443,-1.2115 5.9202,-4.4968 5.9202,-8.35 -2e-4,-4.8879 -3.9835,-8.8628 -8.8744,-8.8488 z m -0.1599,4.0595 c 2.7303,-0.1057 4.9851,2.0847 4.9851,4.7919 0,1.3768 -0.5833,2.6198 -1.5156,3.4952 -0.0791,0.0742 -0.1216,0.1796 -0.1155,0.2879 0.0186,0.3293 0.0118,0.6493 -0.0101,1.0107 -0.0059,0.0963 0.1021,0.1578 0.1818,0.1035 1.5634,-1.0684 2.5917,-2.8649 2.5917,-4.8973 0,-3.3464 -2.7874,-6.0541 -6.1623,-5.9233 -3.1364,0.1216 -5.6527,2.7075 -5.6929,5.8461 -0.0264,2.0642 1.0082,3.8929 2.5917,4.9747 0.0795,0.0543 0.1872,-0.0073 0.1813,-0.1035 -0.022,-0.3616 -0.0287,-0.6816 -0.0102,-1.0109 0.0061,-0.1082 -0.0363,-0.2136 -0.1152,-0.2877 -0.9614,-0.9026 -1.5518,-2.1961 -1.5142,-3.6241 0.0662,-2.513 2.0923,-4.5659 4.6044,-4.6632 z"
   id="path21" />
			</g>
		</g>
	</g>
	<g
   id="g53">
		<path
   fill="#ffffff"
   d="m 46.223,27.8223 h -4.7334 l -1.1367,3.3564 H 38.348 l 4.4834,-12.4189 h 2.083 l 4.4834,12.4189 h -2.0391 z m -4.2432,-1.5489 h 3.752 l -1.8496,-5.4482 h -0.0518 z"
   id="path27" />
		<path
   fill="#ffffff"
   d="m 59.0804,26.6523 c 0,2.8135 -1.5059,4.6211 -3.7783,4.6211 -1.29,0 -2.3145,-0.5771 -2.8486,-1.584 h -0.043 v 4.4844 H 50.5521 V 22.125 h 1.7988 v 1.5059 h 0.0342 c 0.5166,-0.9717 1.6182,-1.6006 2.8828,-1.6006 2.2978,0 3.8125,1.8164 3.8125,4.622 z m -1.9102,0 c 0,-1.833 -0.9473,-3.0381 -2.3926,-3.0381 -1.4199,0 -2.375,1.2305 -2.375,3.0381 0,1.8242 0.9551,3.0459 2.375,3.0459 1.4454,0 2.3926,-1.1962 2.3926,-3.0459 z"
   id="path29" />
		<path
   fill="#ffffff"
   d="m 69.0452,26.6523 c 0,2.8135 -1.5059,4.6211 -3.7783,4.6211 -1.29,0 -2.3144,-0.5771 -2.8486,-1.584 h -0.043 v 4.4844 H 60.5169 V 22.125 h 1.7988 v 1.5059 h 0.0342 c 0.5166,-0.9717 1.6182,-1.6006 2.8828,-1.6006 2.2979,0 3.8125,1.8164 3.8125,4.622 z m -1.9101,0 c 0,-1.833 -0.9473,-3.0381 -2.3926,-3.0381 -1.4199,0 -2.375,1.2305 -2.375,3.0381 0,1.8242 0.9551,3.0459 2.375,3.0459 1.4453,0 2.3926,-1.1962 2.3926,-3.0459 z"
   id="path31" />
		<path
   fill="#ffffff"
   d="m 70.5501,18.7598 h 1.8594 v 12.4189 h -1.8594 z"
   id="path33" />
		<path
   fill="#ffffff"
   d="m 82.0853,28.5195 c -0.25,1.6436 -1.8506,2.7715 -3.8984,2.7715 -2.6338,0 -4.2686,-1.7646 -4.2686,-4.5957 0,-2.8398 1.6436,-4.6816 4.1904,-4.6816 2.5049,0 4.0801,1.7207 4.0801,4.4658 v 0.6367 h -6.3945 v 0.1123 c 0,1.5488 0.9727,2.5645 2.4355,2.5645 1.0322,0 1.8418,-0.4902 2.0908,-1.2734 h 1.7647 z M 75.803,25.8174 h 4.5264 c -0.043,-1.3857 -0.9297,-2.2979 -2.2207,-2.2979 -1.2822,0 -2.2109,0.9297 -2.3057,2.2979 z"
   id="path35" />
		<path
   fill="#ffffff"
   d="m 92.0872,18.7598 c 2.4092,0 4.0879,1.6611 4.0879,4.0801 0,2.4268 -1.7129,4.0957 -4.1484,4.0957 h -2.668 v 4.2432 H 87.431 v -12.419 z m -2.7285,6.5586 h 2.2119 c 1.6777,0 2.6328,-0.9043 2.6328,-2.4697 0,-1.5664 -0.9551,-2.4624 -2.624,-2.4624 h -2.2207 z"
   id="path37" />
		<path
   fill="#ffffff"
   d="m 96.8538,26.6523 c 0,-2.8486 1.6777,-4.6387 4.2939,-4.6387 2.625,0 4.2949,1.79 4.2949,4.6387 0,2.8564 -1.6611,4.6387 -4.2949,4.6387 -2.6328,0 -4.2939,-1.7822 -4.2939,-4.6387 z m 6.6953,0 c 0,-1.9541 -0.8955,-3.1074 -2.4014,-3.1074 -1.5059,0 -2.4014,1.1621 -2.4014,3.1074 0,1.9619 0.8955,3.1064 2.4014,3.1064 1.5059,0 2.4014,-1.1444 2.4014,-3.1064 z"
   id="path39" />
		<path
   fill="#ffffff"
   d="m 106.7474,26.6523 c 0,-2.7969 1.54,-4.6221 3.7861,-4.6221 1.2998,0 2.3242,0.6025 2.8398,1.6006 h 0.0352 v -4.8711 h 1.8672 v 12.4189 h -1.8076 v -1.54 h -0.0342 c -0.5332,1.0322 -1.5664,1.6348 -2.8828,1.6348 -2.2637,0 -3.8037,-1.8242 -3.8037,-4.6211 z m 1.9013,0 c 0,1.8584 0.9473,3.0459 2.3926,3.0459 1.4287,0 2.3838,-1.2051 2.3838,-3.0459 0,-1.8252 -0.9551,-3.0381 -2.3838,-3.0381 -1.4453,10e-5 -2.3926,1.1963 -2.3926,3.0381 z"
   id="path41" />
		<path
   fill="#ffffff"
   d="m 123.1839,25.2402 c -0.1631,-0.9551 -0.9121,-1.6689 -2.1338,-1.6689 -1.4287,0 -2.376,1.1963 -2.376,3.0811 0,1.9277 0.9561,3.0889 2.3926,3.0889 1.1533,0 1.9111,-0.5762 2.1172,-1.626 h 1.79 c -0.2061,1.9014 -1.7295,3.1758 -3.9238,3.1758 -2.582,0 -4.2686,-1.7646 -4.2686,-4.6387 0,-2.8145 1.6865,-4.6387 4.251,-4.6387 2.3232,0 3.7695,1.4629 3.9248,3.2266 h -1.7734 z"
   id="path43" />
		<path
   fill="#ffffff"
   d="m 126.1126,28.6055 c 0,-1.583 1.2129,-2.5391 3.3643,-2.668 l 2.4785,-0.1377 v -0.6885 c 0,-1.0068 -0.6621,-1.5752 -1.7891,-1.5752 -1.0332,0 -1.7559,0.4912 -1.9023,1.2744 h -1.7383 c 0.0518,-1.6357 1.5742,-2.7969 3.6914,-2.7969 2.1602,0 3.5889,1.1787 3.5889,2.96 v 6.2051 h -1.7812 v -1.4893 h -0.043 c -0.5254,1.0068 -1.6699,1.6445 -2.8574,1.6445 -1.7725,10e-5 -3.0118,-1.1015 -3.0118,-2.7284 z m 5.8428,-0.8174 v -0.6973 l -2.2285,0.1377 c -1.1104,0.0693 -1.7383,0.5508 -1.7383,1.3252 0,0.792 0.6543,1.3086 1.6524,1.3086 1.2997,0 2.3144,-0.8955 2.3144,-2.0742 z"
   id="path45" />
		<path
   fill="#ffffff"
   d="m 138.9935,22.0225 c 2.0059,0 3.4424,1.1094 3.4854,2.71 h -1.7471 c -0.0771,-0.7998 -0.7568,-1.29 -1.79,-1.29 -1.0068,0 -1.6777,0.4639 -1.6777,1.1699 0,0.542 0.4473,0.9033 1.3857,1.1357 l 1.5234,0.3535 c 1.8242,0.4385 2.5127,1.1094 2.5127,2.4355 0,1.6348 -1.5488,2.7539 -3.7607,2.7539 -2.1348,0 -3.5713,-1.0938 -3.709,-2.7461 h 1.8408 c 0.1299,0.8691 0.8262,1.334 1.9541,1.334 1.1104,0 1.8076,-0.4561 1.8076,-1.1787 0,-0.5596 -0.3447,-0.8604 -1.291,-1.1016 l -1.6182,-0.3955 c -1.6357,-0.3965 -2.4619,-1.2314 -2.4619,-2.4873 0,-1.6006 1.4375,-2.6933 3.5459,-2.6933 z"
   id="path47" />
		<path
   fill="#ffffff"
   d="m 146.7239,19.9819 v 2.1431 h 1.7217 v 1.4717 h -1.7217 v 4.9912 c 0,0.7754 0.3447,1.1367 1.1016,1.1367 0.1895,0 0.4912,-0.0264 0.6113,-0.043 v 1.4629 c -0.2061,0.0518 -0.6191,0.0859 -1.0322,0.0859 -1.833,0 -2.5479,-0.6885 -2.5479,-2.4443 v -5.1895 h -1.3164 V 22.125 h 1.3164 v -2.1431 z"
   id="path49" />
		<path
   fill="#ffffff"
   d="m 153.4427,22.0225 c 2.0059,0 3.4424,1.1094 3.4854,2.71 h -1.7471 c -0.0771,-0.7998 -0.7568,-1.29 -1.79,-1.29 -1.0068,0 -1.6777,0.4639 -1.6777,1.1699 0,0.542 0.4473,0.9033 1.3857,1.1357 l 1.5234,0.3535 c 1.8242,0.4385 2.5127,1.1094 2.5127,2.4355 0,1.6348 -1.5488,2.7539 -3.7607,2.7539 -2.1348,0 -3.5713,-1.0938 -3.709,-2.7461 h 1.8408 c 0.1299,0.8691 0.8262,1.334 1.9541,1.334 1.1104,0 1.8076,-0.4561 1.8076,-1.1787 0,-0.5596 -0.3447,-0.8604 -1.291,-1.1016 l -1.6182,-0.3955 c -1.6357,-0.3965 -2.4619,-1.2314 -2.4619,-2.4873 0,-1.6006 1.4375,-2.6933 3.5459,-2.6933 z"
   id="path51" />
	</g>
	<g
   id="g71">
		<path
   fill="#ffffff"
   d="M 42.9578,14.6611 H 39.2361 V 8.6943 h 0.9263 v 5.1147 h 2.7954 z"
   id="path55" />
		<path
   fill="#ffffff"
   d="m 44.0345,8.8267 c 0,-0.3105 0.2441,-0.5459 0.5747,-0.5459 0.3311,0 0.5747,0.2354 0.5747,0.5459 0,0.3057 -0.2437,0.5415 -0.5747,0.5415 -0.3306,0 -0.5747,-0.2359 -0.5747,-0.5415 z m 0.1323,1.3315 h 0.8848 v 4.5029 h -0.8848 z"
   id="path57" />
		<path
   fill="#ffffff"
   d="m 48.1307,10.0713 c 1.0132,0 1.6748,0.4712 1.7612,1.2651 h -0.8516 c -0.083,-0.3306 -0.4053,-0.5415 -0.9097,-0.5415 -0.4966,0 -0.8726,0.2354 -0.8726,0.5869 0,0.269 0.2275,0.4385 0.7153,0.5503 l 0.7485,0.1733 c 0.856,0.1987 1.2568,0.5669 1.2568,1.2285 0,0.8477 -0.7896,1.4141 -1.8647,1.4141 -1.0713,0 -1.77,-0.4839 -1.8486,-1.2817 h 0.8892 c 0.1118,0.3472 0.4424,0.562 0.98,0.562 0.5542,0 0.9473,-0.248 0.9473,-0.6079 0,-0.2686 -0.2109,-0.4424 -0.6621,-0.5498 l -0.7856,-0.1821 c -0.856,-0.2026 -1.2529,-0.5869 -1.2529,-1.2568 0,-0.7984 0.7319,-1.3604 1.7495,-1.3604 z"
   id="path59" />
		<path
   fill="#ffffff"
   d="m 52.346,9.0371 v 1.1416 h 0.9756 v 0.7485 H 52.346 v 2.3154 c 0,0.4717 0.1943,0.6782 0.6367,0.6782 0.1362,0 0.2148,-0.0083 0.3389,-0.0205 v 0.7402 c -0.1445,0.0244 -0.3101,0.0454 -0.4839,0.0454 -0.9883,0 -1.3809,-0.3477 -1.3809,-1.2158 v -2.543 h -0.7153 v -0.7485 h 0.7153 V 9.0371 Z"
   id="path61" />
		<path
   fill="#ffffff"
   d="m 58.2532,13.4453 c -0.2026,0.8066 -0.9224,1.3027 -1.9517,1.3027 -1.2905,0 -2.0801,-0.8848 -2.0801,-2.3242 0,-1.439 0.8062,-2.3525 2.0757,-2.3525 1.2529,0 2.0098,0.856 2.0098,2.27 v 0.3101 h -3.1802 v 0.0498 c 0.0293,0.7896 0.4883,1.29 1.1992,1.29 0.5376,0 0.9058,-0.1943 1.0713,-0.5459 z m -3.1264,-1.4512 h 2.2744 c -0.0205,-0.707 -0.4507,-1.1665 -1.1079,-1.1665 -0.6577,0 -1.1167,0.4634 -1.1665,1.1665 z"
   id="path63" />
		<path
   fill="#ffffff"
   d="m 59.4993,10.1582 h 0.856 v 0.7153 h 0.0664 c 0.2188,-0.5005 0.6655,-0.8022 1.3438,-0.8022 1.0049,0 1.5591,0.6035 1.5591,1.6748 v 2.915 h -0.8892 v -2.6919 c 0,-0.7236 -0.3145,-1.0835 -0.9717,-1.0835 -0.6577,0 -1.0752,0.4385 -1.0752,1.1411 v 2.6343 h -0.8892 z"
   id="path65" />
		<path
   fill="#ffffff"
   d="m 66.9183,12.4077 c 0,-1.4517 0.8105,-2.3364 2.1255,-2.3364 1.3105,0 2.1211,0.8848 2.1211,2.3364 0,1.4595 -0.8062,2.3403 -2.1211,2.3403 -1.3194,0 -2.1255,-0.8808 -2.1255,-2.3403 z m 3.333,0 c 0,-0.9761 -0.4385,-1.5469 -1.2075,-1.5469 -0.7734,0 -1.2075,0.5708 -1.2075,1.5469 0,0.9839 0.4341,1.5503 1.2075,1.5503 0.769,0 1.2075,-0.5703 1.2075,-1.5503 z"
   id="path67" />
		<path
   fill="#ffffff"
   d="m 72.3572,10.1582 h 0.856 v 0.7153 h 0.0664 c 0.2192,-0.5005 0.6655,-0.8022 1.3438,-0.8022 1.0049,0 1.5591,0.6035 1.5591,1.6748 v 2.915 h -0.8892 v -2.6919 c 0,-0.7236 -0.3145,-1.0835 -0.9717,-1.0835 -0.6577,0 -1.0752,0.4385 -1.0752,1.1411 v 2.6343 h -0.8892 z"
   id="path69" />
	</g>
</g>
<g
   id="g74">
</g>
</svg>
