<?xml version="1.0" encoding="UTF-8" standalone="no"?>
<svg
   xmlns:dc="http://purl.org/dc/elements/1.1/"
   xmlns:cc="http://creativecommons.org/ns#"
   xmlns:rdf="http://www.w3.org/1999/02/22-rdf-syntax-ns#"
   xmlns:svg="http://www.w3.org/2000/svg"
   xmlns="http://www.w3.org/2000/svg"
   xmlns:sodipodi="http://sodipodi.sourceforge.net/DTD/sodipodi-0.dtd"
   xmlns:inkscape="http://www.inkscape.org/namespaces/inkscape"
   width="1000"
   height="400"
   viewBox="0 0 1000 400"
   version="1.1"
   id="SVGRoot"
   sodipodi:docname="timen-logo-web.svg"
   inkscape:version="1.0.2 (e86c8708, 2021-01-15)">
  <defs
     id="defs10" />
  <sodipodi:namedview
     id="base"
     pagecolor="#020202"
     bordercolor="#666666"
     borderopacity="1.0"
     inkscape:pageopacity="0"
     inkscape:pageshadow="2"
     inkscape:zoom="0.97467221"
     inkscape:cx="552.4764"
     inkscape:cy="131.1096"
     inkscape:document-units="px"
     inkscape:current-layer="layer1"
     inkscape:document-rotation="0"
     showgrid="false"
     inkscape:window-width="1516"
     inkscape:window-height="943"
     inkscape:window-x="0"
     inkscape:window-y="25"
     inkscape:window-maximized="0"
     units="in" />
  <metadata
     id="metadata13">
    <rdf:RDF>
      <cc:Work
         rdf:about="">
        <dc:format>image/svg+xml</dc:format>
        <dc:type
           rdf:resource="http://purl.org/dc/dcmitype/StillImage" />
        <dc:title></dc:title>
      </cc:Work>
    </rdf:RDF>
  </metadata>
  <g
     inkscape:label="Layer 1"
     inkscape:groupmode="layer"
     id="layer1">
    <text
       xml:space="preserve"
       style="font-style:normal;font-weight:normal;font-size:168.604px;line-height:0.95;font-family:sans-serif;fill:#ffffff;fill-opacity:1;stroke:none;stroke-width:0.878145"
       x="2.8793395"
       y="179.93962"
       id="text29"
       transform="matrix(0.84423008,0,-0.01972884,1.1845112,0,0)"><tspan
         sodipodi:role="line"
         x="2.8793395"
         y="179.93962"
         id="tspan31"
         style="font-style:normal;font-variant:normal;font-weight:normal;font-stretch:normal;font-size:168.604px;font-family:Aka-AcidGR-Cyberella;-inkscape-font-specification:Aka-AcidGR-Cyberella;fill:#ffffff;stroke-width:0.878145"><tspan
   style="font-style:normal;font-variant:normal;font-weight:normal;font-stretch:normal;font-size:225.535px;font-family:Aka-AcidGR-Cyberella;-inkscape-font-specification:Aka-AcidGR-Cyberella;fill:#d40000;stroke-width:0.878145"
   id="tspan250">Τ</tspan>ιμής <tspan
   style="font-style:normal;font-variant:normal;font-weight:normal;font-stretch:normal;font-size:225.535px;font-family:Aka-AcidGR-Cyberella;-inkscape-font-specification:Aka-AcidGR-Cyberella;fill:#d40000;stroke-width:0.878145"
   id="tspan252">Έ</tspan>νεκεν</tspan></text>
    <g
       style="fill:#ffffff"
       id="g62"
       transform="matrix(3.9571838,-3.4034348,1.198759,2.1609368,591.02775,283.7047)">
      <g
         id="g35"
         style="fill:#ffffff">
        <path
           fill="#000000"
           d="m 12.877,74.204 c 0.051,-0.068 0.107,-0.175 0.169,-0.314 -0.099,0.187 -0.158,0.295 -0.169,0.314 z"
           id="path33"
           style="fill:#ffffff" />
      </g>
      <g
         id="g39"
         style="fill:#ffffff">
        <polygon
           fill="#000000"
           points="12.874,74.207 12.874,74.21 12.877,74.204 "
           id="polygon37"
           style="fill:#ffffff" />
      </g>
      <g
         id="g45"
         style="fill:#ffffff"
         transform="matrix(0.89086765,0,0,0.83447626,12.806642,5.0364488)">
        <path
           fill-rule="evenodd"
           clip-rule="evenodd"
           d="m 82.260376,43.212964 c 3.160754,-3.701239 4.217396,-5.114955 3.4263,-5.003899 -0.0021,-0.0019 -0.0076,-0.0014 -0.0076,-0.0014 -0.02468,0.0076 -0.178818,0.05574 -0.438017,0.133193 -1.861931,0.583746 -9.168754,2.940983 -12.976127,5.259443 -0.868418,0.530665 -1.756203,1.162845 -2.623759,1.831405 0.879028,-0.930025 1.757855,-1.86872 2.635022,-2.848524 0.06731,-0.0741 0.09357,-0.167119 0.100421,-0.261844 1.669414,-0.658004 5.511188,-2.478207 9.149369,-6.414686 4.819293,-5.218055 12.968003,-14.687982 11.210865,-17.313211 -1.754925,-2.633074 -7.858093,1.078235 -9.58389,3.491099 -1.182608,1.65333 -6.707267,9.666673 -9.724872,15.24734 1.274739,-3.96238 3.05771,-9.641004 4.73063,-15.465277 1.105563,-3.846849 1.738441,-6.380596 2.091299,-8.100684 l 0.0041,-0.01459 0.001,-0.0082 c 0.614143,-3.021745 0.347873,-3.497107 0.186715,-4.0066498 0,0 -0.296956,-2.1284533 -1.352898,-1.7366913 -1.056581,0.3940052 -3.174289,2.8894391 -4.204584,6.0702581 -0.965957,2.995131 -3.728344,20.619512 -3.331325,27.481465 -0.02958,0.118911 -0.04996,0.228682 -0.06753,0.333258 -0.0058,0.0066 -0.01616,0.0056 -0.02321,0.0117 -3.595045,4.013846 -7.21554,7.596377 -10.813884,10.832626 2.016522,-3.607419 5.84167,-11.199082 5.753839,-16.741735 -0.120677,-7.512234 -2.775756,-14.858047 -3.724115,-16.266337 -0.601219,-0.890603 -1.087014,-0.480074 -1.341972,0.211904 -9.66e-4,0.0033 -0.0015,0.0056 -0.0024,0.009 -0.08588,0.238542 -0.140863,0.508512 -0.16843,0.770629 -0.90506,4.686787 0.09143,12.111945 0.0058,15.318849 -0.07485,2.844468 -1.245623,14.134007 -1.616884,17.685797 -5.054926,4.450909 -10.049176,8.184125 -14.849591,11.315095 1.76588,-1.746811 4.063869,-5.040773 6.385339,-8.370958 3.08368,-4.42414 5.053939,-16.02828 3.771087,-20.587733 -0.265543,3.22418 -9.599669,25.938261 -11.092685,29.555908 -0.02873,0.01724 -0.05472,0.03417 -0.08224,0.0518 0.543936,-2.801219 2.332439,-12.516342 1.624912,-15.910217 -0.829499,-3.985885 -4.6482,-19.729155 -4.173248,-23.563785 -1.879611,4.113608 -2.65189,15.301938 -1.294001,20.22976 1.297483,4.71433 4.351042,13.828847 3.779661,19.283047 -4.652826,2.965074 -9.10895,5.369423 -13.240458,7.309501 0.113989,-0.601221 0.364889,-1.950645 0.694,-3.798009 l -9.65e-4,0.0033 c 4.23113,-15.424316 3.999276,-25.225251 3.331904,-29.240613 -0.02565,-0.200409 -0.05014,-0.400393 -0.08485,-0.573205 -0.03389,-0.227762 -0.07328,-0.416909 -0.128135,-0.504421 0.0049,0.02012 0.0099,0.04511 0.01474,0.06522 -0.124291,-0.414653 -0.284531,-0.711336 -0.496793,-0.837786 -3.016546,-1.799133 -4.000152,16.067015 -4.003483,21.538034 0.0012,4.858272 0.476923,11.873609 0.584429,13.390729 -3.773786,1.76722 -7.27124,3.151989 -10.401,4.234611 2.851326,-3.798174 10.510861,-15.683261 4.524381,-27.090543 -0.0028,0.02855 -0.0049,0.05974 -0.0065,0.08871 -0.02501,-0.04293 -0.04328,-0.09092 -0.0686,-0.132747 -0.373518,3.963826 -1.161911,18.197258 -5.090221,26.986017 0,0 0.199109,-0.37193 0.519733,-1.019393 -0.188533,0.536482 -0.355931,1.00277 -0.493821,1.383294 -8.977091,3.037065 -14.7522506,3.556555 -14.8908026,3.568273 -0.281625,0.02067 -0.469815,0.259947 -0.418598,0.53419 0.05064,0.27159 0.323656,0.474049 0.602546,0.453678 0.06533,-0.0059 5.130354,-0.433484 13.0908936,-2.913004 2.928538,3.158657 6.042931,5.776232 9.709942,7.60555 3.829962,1.914377 1.757083,2.630123 13.432812,3.829413 0,0 -4.711481,-6.904564 -9.158321,-8.813098 -3.530348,-1.514874 -9.155758,-2.926031 -12.395008,-3.13269 2.117315,-0.699363 4.408922,-1.537087 6.85028,-2.543657 0.187878,-0.07844 0.390753,-0.167743 0.582893,-0.247182 1.204436,0.778128 4.13518,2.434966 8.33285,3.271959 5.597508,1.11538 15.481863,2.779964 16.395287,0.854221 0.913107,-1.924621 -4.288117,-4.307901 -6.648438,-4.528089 -1.770887,-0.161672 -10.90343,-0.85849 -15.73259,-0.618375 1.365052,-0.61315 2.782574,-1.275975 4.265947,-2.017088 3.271881,0.593736 15.217888,2.503187 21.021975,-0.106106 4.565043,-2.052681 6.16246,-2.892501 5.361305,-3.098165 -0.0038,-1.32e-4 -0.0064,-8.84e-4 -0.0076,-0.0014 -0.02761,-8.07e-4 -0.191601,-0.02111 -0.473304,-0.04716 -2.026072,-0.197105 -9.996814,-0.904351 -14.607753,-0.314603 -2.794306,0.359127 -6.004233,1.284176 -8.426784,2.078472 4.538982,-2.43015 9.505136,-5.48125 14.692571,-9.278812 6.399849,-0.0644 10.81912,-0.90995 14.794551,-2.818482 2.943434,-0.554039 5.468455,-1.016015 6.667224,-1.180927 3.551648,-0.491526 9.238305,-4.812981 8.629161,-6.90171 -0.605202,-2.08861 -3.910951,-0.344826 -3.910951,-0.344826 -8.926558,5.319827 -21.743023,9.618904 -25.686804,10.879709 4.030699,-2.978221 8.187395,-6.412278 12.383392,-10.366142 3.009459,-0.646953 14.476307,-3.36809 18.525896,-8.113958 z"
           id="path41"
           style="fill:#ffffff;stroke-width:1.21902" />
        <path
           fill-rule="evenodd"
           clip-rule="evenodd"
           d="m 62.437,10.075 c 0.024,0.15 0.062,0.322 0.146,0.515 z"
           id="path43"
           style="fill:#ffffff" />
      </g>
    </g>
    <text
       xml:space="preserve"
       style="font-style:normal;font-weight:normal;font-size:68.2005px;line-height:1.25;font-family:sans-serif;fill:#000000;fill-opacity:1;stroke:none;stroke-width:1.70501"
       x="144.63275"
       y="320.7569"
       id="text36"
       transform="scale(0.96753214,1.0335574)"><tspan
         sodipodi:role="line"
         id="tspan34"
         x="144.63275"
         y="320.7569"
         style="font-style:normal;font-variant:normal;font-weight:normal;font-stretch:normal;font-family:Aka-AcidGR-Cyberella;-inkscape-font-specification:Aka-AcidGR-Cyberella;fill:#ffffff;stroke-width:1.70501">με τον <tspan
   style="font-size:81.8405px;stroke-width:1.70501"
   id="tspan38"><tspan
   style="fill:#ff2a2a"
   id="tspan57">Δ</tspan>αυίβ <tspan
   style="fill:#ff0000"
   id="tspan59">Ν</tspan>αχμία</tspan></tspan></text>
  </g>
</svg>
